<?xml version="1.0" standalone="no"?>
<!DOCTYPE svg PUBLIC "-//W3C//DTD SVG 20010904//EN"
 "http://www.w3.org/TR/2001/REC-SVG-20010904/DTD/svg10.dtd">
<svg version="1.0" xmlns="http://www.w3.org/2000/svg"
 width="4500.000000pt" height="1667.000000pt" viewBox="0 0 4500.000000 1667.000000"
 preserveAspectRatio="xMidYMid meet">

<g transform="translate(0.000000,1667.000000) scale(0.100000,-0.100000)"
fill="#000000" stroke="none">
<path d="M35895 12794 c-957 -42 -1685 -274 -2260 -721 -125 -97 -434 -392
-553 -527 -598 -681 -912 -1526 -1003 -2696 -17 -205 -16 -822 0 -1030 88
-1133 409 -1998 997 -2686 123 -144 394 -411 524 -516 279 -225 649 -420 1025
-541 431 -139 917 -207 1477 -207 903 0 1617 172 2212 535 382 232 807 652
1093 1080 515 772 765 1788 740 3000 -20 928 -183 1672 -507 2310 -223 441
-488 776 -919 1161 -524 470 -1227 743 -2108 819 -171 14 -574 25 -718 19z
m507 -1509 c476 -56 849 -230 1177 -549 468 -457 713 -1064 793 -1966 15 -173
15 -705 -1 -880 -37 -424 -107 -767 -217 -1068 -55 -150 -184 -405 -266 -528
-98 -145 -148 -207 -271 -333 -319 -324 -690 -508 -1166 -578 -145 -21 -512
-23 -651 -4 -433 60 -763 200 -1067 455 -529 441 -833 1137 -902 2061 -42 558
-6 1105 104 1560 254 1060 952 1735 1896 1834 138 14 433 12 571 -4z"/>
<path d="M5654 12525 c-357 -65 -635 -294 -754 -623 -63 -174 -60 -48 -60
-2497 0 -2508 3 -2618 71 -3050 117 -739 352 -1236 777 -1646 534 -515 1298
-784 2317 -817 1440 -47 2443 320 3032 1109 317 424 478 923 565 1739 9 87 13
817 15 2958 l3 2842 -895 0 -895 0 0 -2717 c0 -1694 -4 -2771 -10 -2858 -21
-296 -58 -508 -121 -698 -171 -517 -524 -792 -1123 -874 -149 -20 -506 -22
-651 -4 -783 100 -1157 499 -1259 1346 -33 273 -36 509 -36 3158 l0 2647 -452
-1 c-321 -1 -474 -5 -524 -14z"/>
<path d="M13985 12529 c-353 -51 -656 -304 -772 -644 -56 -166 -53 85 -53
-4011 l0 -3774 820 0 820 0 0 2992 c0 2050 3 2989 10 2982 6 -6 781 -1351
1724 -2990 l1713 -2979 409 -3 c265 -2 442 1 504 8 395 48 712 324 822 715
l23 80 3 3818 2 3817 -820 0 -820 0 -2 -2942 -3 -2942 -1677 2940 -1676 2939
-484 1 c-266 1 -510 -2 -543 -7z"/>
<path d="M22225 12529 c-91 -13 -245 -66 -330 -114 -207 -118 -366 -309 -441
-527 -58 -171 -54 108 -54 -4010 l0 -3780 463 4 c461 4 462 4 559 30 350 95
598 344 701 706 l22 77 3 3813 2 3812 -432 -1 c-238 -1 -460 -5 -493 -10z"/>
<path d="M24100 12398 c1281 -3799 2599 -7687 2620 -7734 121 -268 375 -471
675 -540 117 -28 563 -28 680 0 295 68 537 254 662 509 24 48 587 1682 1373
3987 733 2148 1334 3908 1337 3913 2 4 -409 7 -914 7 l-918 0 -919 -3188
c-506 -1753 -922 -3191 -926 -3195 -8 -9 -72 213 -1091 3781 l-743 2602 -942
0 -943 0 49 -142z"/>
</g>
</svg>
